<?xml version="1.0" standalone="no"?>
<!DOCTYPE svg PUBLIC "-//W3C//DTD SVG 20010904//EN"
 "http://www.w3.org/TR/2001/REC-SVG-20010904/DTD/svg10.dtd">
<svg version="1.0" xmlns="http://www.w3.org/2000/svg"
 width="720.000000pt" height="720.000000pt" viewBox="0 0 720.000000 720.000000"
 preserveAspectRatio="xMidYMid meet">

<g transform="translate(0.000000,720.000000) scale(0.100000,-0.100000)"
fill="#000000" stroke="none">
<path d="M2814 6105 c3 -38 30 -171 62 -295 40 -157 57 -246 58 -294 1 -68 1
-68 -41 -106 -58 -51 -191 -95 -288 -95 -59 0 -81 5 -135 32 -85 42 -317 243
-368 320 -34 52 -37 62 -37 127 0 63 5 79 38 141 20 39 67 106 103 150 51 63
33 47 -86 -74 -83 -85 -157 -169 -166 -185 -13 -25 -17 -83 -21 -288 -3 -142
-10 -258 -14 -258 -5 0 -9 -999 -9 -2220 l0 -2220 533 0 534 0 8 327 c10 402
10 424 0 750 l-8 262 26 12 c15 7 27 16 27 20 0 4 12 12 28 18 15 6 41 20 57
30 17 11 46 28 65 38 116 62 187 105 278 167 56 39 110 76 120 81 9 6 37 24
62 40 25 16 53 34 62 40 9 5 38 23 65 39 26 16 50 32 53 36 3 3 27 19 54 35
27 17 60 38 75 47 14 10 33 21 41 25 8 4 35 21 60 38 25 17 52 34 60 38 8 4
27 15 42 25 14 9 63 40 108 67 45 28 93 57 106 65 34 21 283 172 314 190 14 8
85 53 158 100 73 47 157 101 187 120 30 19 83 55 117 79 35 25 77 54 95 65 17
12 33 28 35 36 2 8 -20 39 -48 68 -115 116 -127 237 -28 278 84 35 298 8 421
-54 61 -31 101 -33 124 -6 6 8 17 14 25 14 7 0 30 12 51 26 21 14 47 30 58 35
11 5 32 17 47 27 15 9 63 39 107 65 45 27 83 52 85 56 8 12 -7 26 -57 57 -27
16 -59 36 -72 44 -72 46 -147 90 -154 90 -5 0 -14 7 -21 15 -17 21 -44 19
-115 -10 -148 -59 -329 -86 -451 -67 -136 21 -181 71 -171 189 6 76 39 148
102 221 43 52 54 72 37 72 -7 0 -79 50 -127 87 -14 11 -152 106 -173 118 -9 6
-45 29 -80 53 -35 23 -65 42 -68 42 -2 0 -26 15 -52 33 -71 47 -85 56 -109 66
-11 6 -24 15 -28 20 -3 6 -15 11 -25 11 -10 0 -20 8 -22 18 -2 9 -7 -11 -11
-46 -16 -149 -121 -240 -288 -250 -116 -7 -132 2 -293 157 -223 214 -354 292
-621 371 -77 23 -157 52 -178 66 -78 51 -124 137 -217 409 -33 98 -72 198 -86
224 l-25 46 5 -70z m647 -851 c116 -34 226 -112 289 -206 48 -72 58 -114 36
-155 -32 -64 -164 -78 -270 -30 -155 71 -306 334 -224 391 29 20 100 20 169 0z
m-412 -92 c14 -10 39 -39 56 -65 16 -25 36 -46 43 -46 6 -1 12 -5 12 -9 0 -10
127 -108 215 -167 33 -22 62 -42 65 -45 3 -3 19 -14 35 -26 17 -11 53 -36 80
-55 28 -20 57 -38 65 -42 8 -4 29 -16 45 -27 17 -11 38 -23 48 -26 9 -4 17
-10 17 -14 0 -5 12 -13 28 -19 31 -12 62 -31 77 -47 17 -18 200 -161 225 -175
13 -8 46 -29 72 -46 26 -18 52 -33 57 -33 5 0 11 -3 13 -7 2 -5 23 -21 48 -38
25 -16 49 -36 53 -42 4 -7 13 -13 18 -13 13 0 48 -41 48 -55 0 -5 -21 -23 -47
-39 -26 -16 -63 -42 -82 -56 -19 -15 -54 -38 -77 -51 -77 -45 -178 -109 -238
-154 -83 -61 -175 -125 -180 -125 -2 0 -24 -13 -48 -30 -25 -16 -47 -30 -50
-30 -4 0 -25 -13 -49 -29 -24 -16 -59 -37 -78 -47 -53 -29 -298 -191 -362
-240 -31 -24 -61 -44 -67 -44 -5 0 -14 -6 -18 -14 -11 -18 -71 -48 -83 -41 -6
3 -10 22 -10 41 0 40 2 38 -38 19 -28 -14 -34 -14 -60 -1 -75 39 -134 252
-112 406 20 141 76 233 168 274 l39 18 7 102 c3 56 3 141 0 187 l-7 85 -48 27
c-132 75 -219 246 -219 432 0 121 20 177 89 246 86 85 185 110 250 61z m1535
-526 c67 -33 111 -89 127 -163 11 -48 10 -59 -7 -100 -30 -73 -64 -88 -199
-87 -137 0 -203 22 -263 88 -74 80 -79 198 -10 249 73 54 254 61 352 13z m-35
-647 c67 -14 95 -47 88 -106 -9 -79 -82 -143 -186 -163 -118 -22 -208 30 -198
116 8 77 71 134 170 154 60 11 70 11 126 -1z"/>
</g>
</svg>
